<svg width="57" height="57" viewBox="0 0 57 57" fill="none" xmlns="http://www.w3.org/2000/svg">
<path d="M47.5 27.9063C47.1143 27.908 46.7388 27.7828 46.4313 27.55L28.5 14.1075L10.5688 27.55C10.1908 27.8335 9.71577 27.9552 9.2481 27.8883C8.78043 27.8215 8.35846 27.5717 8.07501 27.1938C7.79156 26.8158 7.66985 26.3408 7.73666 25.8731C7.80347 25.4054 8.05332 24.9835 8.43126 24.7L27.4313 10.45C27.7396 10.2188 28.1146 10.0938 28.5 10.0938C28.8854 10.0938 29.2604 10.2188 29.5688 10.45L48.5688 24.7C48.9137 24.9801 49.1414 25.379 49.2073 25.8184C49.2732 26.2578 49.1725 26.706 48.925 27.075C48.7736 27.3196 48.5646 27.5233 48.3161 27.6682C48.0676 27.8131 47.7874 27.8949 47.5 27.9063Z" fill="white"/>
<path d="M42.75 46.9062H14.25C13.7795 46.9001 13.33 46.7105 12.9973 46.3777C12.6645 46.045 12.4749 45.5955 12.4688 45.125V22.5625C12.4688 22.0901 12.6564 21.637 12.9905 21.303C13.3245 20.9689 13.7776 20.7812 14.25 20.7812C14.7224 20.7812 15.1755 20.9689 15.5095 21.303C15.8436 21.637 16.0312 22.0901 16.0312 22.5625V43.3438H40.9688V22.5625C40.9688 22.0901 41.1564 21.637 41.4905 21.303C41.8245 20.9689 42.2776 20.7812 42.75 20.7812C43.2224 20.7812 43.6755 20.9689 44.0095 21.303C44.3436 21.637 44.5312 22.0901 44.5312 22.5625V45.125C44.5251 45.5955 44.3355 46.045 44.0027 46.3777C43.67 46.7105 43.2205 46.9001 42.75 46.9062Z" fill="white"/>
<path d="M33.2812 44.1875C32.8107 44.1813 32.3612 43.9917 32.0285 43.659C31.6958 43.3263 31.5062 42.8768 31.5 42.4062V27.5625H25.5625V42.4062C25.5625 42.8787 25.3748 43.3317 25.0408 43.6658C24.7067 43.9998 24.2537 44.1875 23.7812 44.1875C23.3088 44.1875 22.8558 43.9998 22.5217 43.6658C22.1877 43.3317 22 42.8787 22 42.4062V25.7812C22.0062 25.3107 22.1958 24.8612 22.5285 24.5285C22.8612 24.1958 23.3107 24.0062 23.7812 24H33.2812C33.7518 24.0062 34.2013 24.1958 34.534 24.5285C34.8667 24.8612 35.0563 25.3107 35.0625 25.7812V42.4062C35.0563 42.8768 34.8667 43.3263 34.534 43.659C34.2013 43.9917 33.7518 44.1813 33.2812 44.1875Z" fill="white"/>
</svg>
