<svg width="26" height="25" viewBox="0 0 26 25" fill="none" xmlns="http://www.w3.org/2000/svg">
<path d="M17.0278 9.55882L16.2979 9.43824C16.2802 9.54352 16.2859 9.65136 16.3145 9.75426C16.343 9.85715 16.3938 9.95264 16.4633 10.0341C16.5327 10.1155 16.6192 10.181 16.7167 10.2259C16.8142 10.2708 16.9204 10.2941 17.0278 10.2941V9.55882ZM0.74034 9.55882V8.82353C0.54399 8.82353 0.355682 8.901 0.216841 9.03889C0.0780001 9.17679 0 9.36381 0 9.55882H0.74034ZM3.7017 25H20.5222V23.5294H3.7017V25ZM22.2991 8.82353H17.0278V10.2941H22.2991V8.82353ZM17.7578 9.67941L18.9512 2.56912L17.4913 2.32647L16.2979 9.43824L17.7578 9.67941ZM16.7613 5.7595e-08H16.4459V1.47059H16.7613V5.7595e-08ZM12.1327 2.29265L8.40731 7.84118L9.63923 8.65735L13.3631 3.10735L12.1327 2.29265ZM6.55942 8.82353H0.74034V10.2941H6.55942V8.82353ZM0 9.55882V21.3235H1.48068V9.55882H0ZM24.1529 22.0441L25.9297 13.2206L24.4786 12.9324L22.7018 21.7559L24.1529 22.0441ZM8.40731 7.84118C8.2045 8.14333 7.92973 8.39109 7.60737 8.56246C7.28501 8.73383 6.92505 8.8235 6.55942 8.82353V10.2941C7.16875 10.2941 7.76867 10.1447 8.30593 9.85922C8.84319 9.57369 9.30117 9.16086 9.63923 8.65735L8.40731 7.84118ZM18.9512 2.56912C19.0043 2.25314 18.9875 1.92946 18.9019 1.62059C18.8164 1.31173 18.6641 1.02508 18.4557 0.780578C18.2472 0.536079 17.9877 0.339599 17.6951 0.204798C17.4025 0.0699979 17.0839 0.000111944 16.7613 5.7595e-08V1.47059C16.8689 1.47042 16.9752 1.49355 17.0729 1.53836C17.1706 1.58318 17.2573 1.64859 17.3269 1.73006C17.3965 1.81153 17.4474 1.90709 17.4761 2.01009C17.5047 2.11309 17.5104 2.22106 17.4928 2.32647L18.9512 2.56912ZM22.2991 10.2941C22.6276 10.2941 22.9522 10.3665 23.2492 10.5061C23.5462 10.6457 23.8083 10.849 24.0167 11.1013C24.225 11.3537 24.3744 11.6488 24.454 11.9655C24.5336 12.2821 24.543 12.6123 24.4786 12.9324L25.9297 13.2206C26.037 12.6874 26.0224 12.1372 25.8898 11.6097C25.7573 11.0822 25.5085 10.5904 25.1616 10.1698C24.8146 9.74928 24.378 9.41039 23.8833 9.17759C23.3885 8.94478 22.848 8.82386 22.3005 8.82353L22.2991 10.2941ZM20.5222 25C21.3782 25.0002 22.2077 24.7057 22.8697 24.1668C23.5316 23.6279 23.9851 22.8777 24.1529 22.0441L22.7018 21.7559C22.6011 22.2563 22.3289 22.7065 21.9314 23.0299C21.534 23.3532 21.036 23.5298 20.5222 23.5294V25ZM16.4444 5.7595e-08C15.591 -0.00012673 14.7508 0.209078 13.9983 0.609034C13.2459 1.00899 12.6045 1.58732 12.1312 2.29265L13.3631 3.10735C13.7012 2.60385 14.1592 2.19101 14.6964 1.90549C15.2337 1.61996 15.8336 1.47058 16.443 1.47059L16.4444 5.7595e-08ZM3.7017 23.5294C3.11265 23.5294 2.54772 23.297 2.1312 22.8833C1.71468 22.4696 1.48068 21.9086 1.48068 21.3235H0C0 21.8063 0.0957474 22.2844 0.281775 22.7305C0.467803 23.1765 0.740469 23.5818 1.0842 23.9232C1.42794 24.2646 1.83601 24.5354 2.28512 24.7201C2.73423 24.9049 3.21559 25 3.7017 25V23.5294Z" fill="white"/>
</svg>
