<svg width="19" height="18" viewBox="0 0 19 18" fill="none" xmlns="http://www.w3.org/2000/svg">
<path opacity="0.2" d="M15.3521 7.63618C15.3521 9.00265 14.9242 10.3384 14.1227 11.4746C13.3211 12.6108 12.1818 13.4963 10.8488 14.0193C9.51582 14.5422 8.04905 14.679 6.63397 14.4124C5.21889 14.1458 3.91906 13.4878 2.89885 12.5216C1.87863 11.5553 1.18386 10.3243 0.90238 8.98406C0.620904 7.64384 0.765368 6.25467 1.3175 4.99221C1.86964 3.72976 2.80465 2.65072 4.0043 1.89155C5.20394 1.13238 6.61434 0.727173 8.05714 0.727173C9.01513 0.727173 9.96373 0.90588 10.8488 1.25309C11.7339 1.6003 12.538 2.10921 13.2154 2.75077C13.8928 3.39233 14.4302 4.15398 14.7968 4.99221C15.1634 5.83045 15.3521 6.72887 15.3521 7.63618Z" fill="white"/>
<path d="M18.7862 16.8199L14.2214 12.4966C15.5471 10.9908 16.2087 9.05892 16.0687 7.10285C15.9287 5.14679 14.9979 3.31714 13.4698 1.99455C11.9417 0.671953 9.93406 -0.0417581 7.8645 0.00189023C5.79495 0.0455385 3.82283 0.843186 2.35842 2.22889C0.894019 3.6146 0.0500728 5.48168 0.00215738 7.44171C-0.0457581 9.40174 0.706046 11.3038 2.10117 12.7522C3.49629 14.2006 5.42731 15.0839 7.49252 15.2182C9.55772 15.3525 11.5981 14.7276 13.1892 13.4734L17.754 17.7975C17.8218 17.8617 17.9022 17.9126 17.9908 17.9474C18.0793 17.9821 18.1742 18 18.2701 18C18.366 18 18.4609 17.9821 18.5494 17.9474C18.638 17.9126 18.7184 17.8617 18.7862 17.7975C18.854 17.7333 18.9078 17.6571 18.9444 17.5733C18.9811 17.4894 19 17.3995 19 17.3087C19 17.2179 18.9811 17.128 18.9444 17.0442C18.9078 16.9603 18.854 16.8841 18.7862 16.8199ZM1.49175 7.63611C1.49175 6.40629 1.87681 5.20408 2.59823 4.18152C3.31965 3.15896 4.34503 2.36197 5.54471 1.89133C6.74439 1.4207 8.06448 1.29756 9.33805 1.53749C10.6116 1.77741 11.7815 2.36963 12.6997 3.23925C13.6179 4.10887 14.2432 5.21683 14.4965 6.42302C14.7498 7.62921 14.6198 8.87947 14.1229 10.0157C13.6259 11.1519 12.7844 12.123 11.7048 12.8063C10.6251 13.4895 9.35571 13.8542 8.05719 13.8542C6.31652 13.8524 4.6477 13.1967 3.41686 12.031C2.18602 10.8652 1.49369 9.28469 1.49175 7.63611Z" fill="white"/>
</svg>
