<svg width="46" height="46" viewBox="0 0 46 46" fill="none" xmlns="http://www.w3.org/2000/svg">
<path d="M15.1058 12.3532C14.4866 12.3606 13.8956 12.6137 13.463 13.0568C13.0304 13.4999 12.7915 14.0967 12.7989 14.7159C12.8063 15.3351 13.0594 15.9261 13.5025 16.3587C13.9456 16.7913 14.5424 17.0302 15.1616 17.0228C15.7808 17.0154 16.3718 16.7623 16.8044 16.3192C17.237 15.8761 17.4759 15.2793 17.4685 14.6601C17.4611 14.0409 17.208 13.4499 16.7649 13.0173C16.3218 12.5847 15.725 12.3458 15.1058 12.3532ZM22.5772 12.2639C21.958 12.2713 21.367 12.5244 20.9344 12.9675C20.5018 13.4106 20.2629 14.0074 20.2703 14.6266C20.2777 15.2458 20.5308 15.8368 20.9739 16.2694C21.417 16.702 22.0138 16.9409 22.633 16.9335C23.2522 16.9261 23.8432 16.673 24.2758 16.2299C24.7084 15.7868 24.9473 15.19 24.9399 14.5708C24.9325 13.9516 24.6794 13.3607 24.2363 12.928C23.7932 12.4954 23.1964 12.2565 22.5772 12.2639ZM27.7417 14.5373C27.7343 13.9181 27.9732 13.3213 28.4058 12.8782C28.8384 12.4351 29.4294 12.182 30.0486 12.1746C30.6678 12.1672 31.2646 12.4061 31.7077 12.8387C32.1508 13.2714 32.4039 13.8623 32.4113 14.4815C32.4187 15.1007 32.1798 15.6976 31.7472 16.1407C31.3146 16.5837 30.7236 16.8368 30.1044 16.8442C29.4852 16.8516 28.8884 16.6127 28.4453 16.1801C28.0022 15.7475 27.7491 15.1566 27.7417 14.5373Z" fill="white"/>
<path fill-rule="evenodd" clip-rule="evenodd" d="M31.0059 2.43926C25.9689 2.07042 20.9105 2.10589 15.8792 2.54532L15.519 2.57764C13.2058 2.78005 11.0543 3.8489 9.49562 5.57014C7.9369 7.29137 7.08597 9.53792 7.11324 11.8599L7.30337 27.7683C7.30648 28.0105 7.37231 28.2477 7.49446 28.4569C7.6166 28.666 7.79087 28.8399 8.00027 28.9616C8.20966 29.0833 8.44704 29.1487 8.68922 29.1513C8.9314 29.1539 9.17011 29.0936 9.38207 28.9765L16.6385 24.9648C16.9767 24.7777 17.3562 24.6775 17.7428 24.6733L34.5086 24.4729C36.623 24.4476 38.4167 22.913 38.771 20.8296C39.4902 16.6046 39.4984 12.2892 38.7978 8.0607L38.5923 6.81338C38.4097 5.71144 37.862 4.70287 37.0372 3.94973C36.2123 3.19659 35.1582 2.74261 34.0443 2.66075L31.0059 2.43926ZM16.1255 5.33707C21.0076 4.90936 25.9162 4.87443 30.8039 5.23264L33.8404 5.45601C34.8426 5.52997 35.6661 6.28045 35.8292 7.27234L36.0365 8.51776C36.6839 12.4394 36.6749 16.4414 36.0099 20.3601C35.9493 20.7239 35.7624 21.0548 35.482 21.2946C35.2017 21.5343 34.8458 21.6676 34.4769 21.6711L17.7093 21.8715C16.8605 21.8818 16.0274 22.1023 15.2847 22.5132L10.0771 25.3926L9.91501 11.8264C9.89581 10.211 10.4875 8.64805 11.5716 7.45039C12.6558 6.25273 14.1523 5.5088 15.7616 5.36758L16.1255 5.33707Z" fill="white"/>
</svg>
