<svg width="33" height="27" viewBox="0 0 33 27" fill="none" xmlns="http://www.w3.org/2000/svg">
<path fill-rule="evenodd" clip-rule="evenodd" d="M23.8934 0.252491C18.8564 -0.116344 13.798 -0.0808772 8.76665 0.358551L8.40649 0.390877C6.09321 0.593284 3.94178 1.66213 2.38307 3.38337C0.824352 5.10461 -0.0265755 7.35116 0.000694195 9.67312L0.190821 25.5816C0.193929 25.8237 0.259766 26.061 0.381907 26.2701C0.504047 26.4793 0.67832 26.6532 0.887718 26.7749C1.09712 26.8966 1.33449 26.9619 1.57667 26.9645C1.81885 26.9671 2.05757 26.9069 2.26953 26.7897L9.52591 22.7781C9.8642 22.591 10.2437 22.4908 10.6302 22.4865L27.396 22.2861C29.5104 22.2609 31.3041 20.7263 31.6585 18.6428C32.3776 14.4179 32.3858 10.1024 31.6852 5.87393L31.4798 4.62662C31.2972 3.52468 30.7495 2.51611 29.9246 1.76296C29.0998 1.00982 28.0457 0.555847 26.9317 0.473979L23.8934 0.252491ZM9.01298 3.15031C13.8951 2.72259 18.8037 2.68766 23.6914 3.04587L26.7279 3.26925C27.7301 3.3432 28.5535 4.09368 28.7167 5.08557L28.924 6.33099C29.5714 10.2526 29.5624 14.2546 28.8974 18.1733C28.8367 18.5372 28.6498 18.868 28.3695 19.1078C28.0891 19.3475 27.7333 19.4809 27.3644 19.4843L10.5967 19.6847C9.74792 19.695 8.91488 19.9155 8.17212 20.3265L2.9646 23.2058L2.80247 9.63963C2.78326 8.02428 3.37496 6.46128 4.4591 5.26362C5.54324 4.06596 7.03978 3.32204 8.64906 3.18081L9.01298 3.15031Z" fill="white"/>
</svg>
