<svg width="32" height="32" viewBox="0 0 32 32" fill="none" xmlns="http://www.w3.org/2000/svg">
<g clip-path="url(#clip0_100_704)">
<path d="M20.9573 12.1989L20.0589 12.045C20.0372 12.1794 20.0442 12.317 20.0793 12.4483C20.1145 12.5796 20.177 12.7015 20.2625 12.8054C20.348 12.9093 20.4544 12.9929 20.5744 13.0502C20.6944 13.1075 20.8251 13.1372 20.9573 13.1372V12.1989ZM0.911188 12.1989V11.2605C0.669526 11.2605 0.437762 11.3594 0.266881 11.5353C0.0960001 11.7113 0 11.95 0 12.1989H0.911188ZM4.55594 31.9048H25.2581V30.028H4.55594V31.9048ZM27.445 11.2605H20.9573V13.1372H27.445V11.2605ZM21.8558 12.3528L23.3246 3.27868L21.5277 2.96902L20.0589 12.045L21.8558 12.3528ZM20.6293 7.35021e-08H20.2411V1.87675H20.6293V7.35021e-08ZM14.9326 2.92585L10.3475 10.0068L11.8637 11.0484L16.4469 3.96557L14.9326 2.92585ZM8.07313 11.2605H0.911188V13.1372H8.07313V11.2605ZM0 12.1989V27.2129H1.82238V12.1989H0ZM29.7266 28.1325L31.9135 16.872L30.1275 16.5041L27.9407 27.7646L29.7266 28.1325ZM10.3475 10.0068C10.0979 10.3924 9.75967 10.7086 9.36292 10.9273C8.96617 11.146 8.52313 11.2605 8.07313 11.2605V13.1372C8.82308 13.1373 9.56144 12.9466 10.2227 12.5822C10.8839 12.2178 11.4476 11.691 11.8637 11.0484L10.3475 10.0068ZM23.3246 3.27868C23.39 2.87543 23.3693 2.46236 23.2639 2.06819C23.1586 1.67401 22.9712 1.30819 22.7147 0.996165C22.4582 0.684139 22.1387 0.433393 21.7786 0.261362C21.4185 0.0893306 21.0263 0.000142862 20.6293 7.35021e-08V1.87675C20.7617 1.87654 20.8926 1.90606 21.0128 1.96324C21.133 2.02043 21.2397 2.10392 21.3254 2.20789C21.4111 2.31186 21.4737 2.43381 21.509 2.56526C21.5443 2.69671 21.5513 2.83449 21.5296 2.96902L23.3246 3.27868ZM27.445 13.1372C27.8494 13.1372 28.2488 13.2296 28.6144 13.4078C28.9799 13.5859 29.3026 13.8454 29.559 14.1674C29.8154 14.4895 29.9993 14.8661 30.0973 15.2702C30.1953 15.6743 30.2068 16.0957 30.1275 16.5041L31.9135 16.872C32.0455 16.1916 32.0276 15.4894 31.8644 14.8162C31.7012 14.143 31.3951 13.5154 30.9681 12.9787C30.541 12.4419 30.0037 12.0094 29.3948 11.7123C28.7859 11.4152 28.1206 11.2609 27.4468 11.2605L27.445 13.1372ZM25.2581 31.9048C26.3116 31.905 27.3326 31.5292 28.1473 30.8414C28.962 30.1536 29.5201 29.1963 29.7266 28.1325L27.9407 27.7646C27.8167 28.4032 27.4817 28.9778 26.9925 29.3905C26.5034 29.8032 25.8905 30.0285 25.2581 30.028V31.9048ZM20.2393 7.35021e-08C19.1889 -0.000161732 18.1548 0.266824 17.2287 0.777243C16.3026 1.28766 15.5132 2.02572 14.9307 2.92585L16.4469 3.96557C16.863 3.32301 17.4267 2.79615 18.0879 2.43177C18.7492 2.06738 19.4875 1.87674 20.2375 1.87675L20.2393 7.35021e-08ZM4.55594 30.028C3.83095 30.028 3.13566 29.7314 2.62302 29.2035C2.11038 28.6755 1.82238 27.9595 1.82238 27.2129H0C0 27.829 0.117843 28.4391 0.3468 29.0084C0.575758 29.5776 0.911346 30.0949 1.3344 30.5305C1.75746 30.9662 2.25971 31.3118 2.81246 31.5476C3.36521 31.7834 3.95765 31.9048 4.55594 31.9048V30.028Z" fill="white"/>
<path d="M8.20068 12.199V30.9665" stroke="white"/>
</g>
<defs>
<clipPath id="clip0_100_704">
<rect width="32" height="32" fill="white"/>
</clipPath>
</defs>
</svg>
