<svg width="37" height="37" viewBox="0 0 37 37" fill="none" xmlns="http://www.w3.org/2000/svg">
<path d="M18.0246 20.6465C19.4743 20.6448 20.6482 19.4681 20.6465 18.0184C20.6447 16.5686 19.4681 15.3948 18.0183 15.3965C16.5686 15.3982 15.3947 16.5749 15.3965 18.0247C15.3982 19.4744 16.5749 20.6482 18.0246 20.6465Z" fill="white"/>
<path d="M18.0122 10.1465C19.4619 10.1448 20.6357 8.96811 20.634 7.51836C20.6323 6.06862 19.4556 4.89477 18.0059 4.89651C16.5561 4.89825 15.3823 6.07491 15.384 7.52466C15.3857 8.9744 16.5624 10.1482 18.0122 10.1465Z" fill="white"/>
<path d="M18.0373 31.1465C19.487 31.1448 20.6609 29.9681 20.6591 28.5184C20.6574 27.0686 19.4808 25.8948 18.031 25.8965C16.5813 25.8982 15.4074 27.0749 15.4092 28.5247C15.4109 29.9744 16.5876 31.1482 18.0373 31.1465Z" fill="white"/>
</svg>
