<svg width="27" height="26" viewBox="0 0 27 26" fill="none" xmlns="http://www.w3.org/2000/svg">
<path d="M8.977 16.0154L9.70691 16.1408C9.72459 16.0316 9.71898 15.9198 9.69047 15.8131C9.66196 15.7064 9.61123 15.6074 9.54181 15.5229C9.47239 15.4384 9.38594 15.3705 9.28847 15.3239C9.19099 15.2773 9.08484 15.2531 8.97737 15.253L8.977 16.0154ZM25.2645 16.0233L25.2641 16.7858C25.4605 16.7859 25.6488 16.7056 25.7877 16.5627C25.9266 16.4198 26.0047 16.2259 26.0048 16.0237L25.2645 16.0233ZM22.3109 0.0108642L5.49039 0.00266745L5.48965 1.52753L22.3102 1.53572L22.3109 0.0108642ZM3.7054 16.7753L8.97663 16.7778L8.97737 15.253L3.70615 15.2504L3.7054 16.7753ZM8.24709 15.89L7.05006 23.2621L8.50989 23.5144L9.70691 16.1408L8.24709 15.89ZM9.23869 25.9271L9.55408 25.9273L9.55482 24.4024L9.23944 24.4022L9.23869 25.9271ZM13.8685 23.5521L17.5967 17.8006L16.3651 16.9537L12.6384 22.7067L13.8685 23.5521ZM19.445 16.7829L25.2641 16.7858L25.2649 15.2609L19.4458 15.2581L19.445 16.7829ZM26.0048 16.0237L26.0108 3.82482L24.5301 3.8241L24.5241 16.023L26.0048 16.0237ZM1.85827 3.06587L0.0769985 12.2142L1.52792 12.5137L3.30919 3.36545L1.85827 3.06587ZM17.5967 17.8006C17.7996 17.4874 18.0745 17.2307 18.397 17.0531C18.7194 16.8756 19.0794 16.7828 19.445 16.7829L19.4458 15.2581C18.8364 15.2578 18.2365 15.4124 17.699 15.7082C17.1616 16.004 16.7035 16.4318 16.3651 16.9537L17.5967 17.8006ZM7.05006 23.2621C6.99679 23.5897 7.01345 23.9254 7.09887 24.2457C7.1843 24.566 7.33645 24.8633 7.54473 25.1169C7.75302 25.3705 8.01245 25.5744 8.30499 25.7143C8.59752 25.8542 8.91614 25.9268 9.23869 25.9271L9.23944 24.4022C9.13184 24.4024 9.02552 24.3783 8.92787 24.3318C8.83022 24.2853 8.74358 24.2174 8.674 24.1329C8.60441 24.0484 8.55355 23.9493 8.52496 23.8425C8.49636 23.7357 8.49071 23.6237 8.50841 23.5144L7.05006 23.2621ZM3.70615 15.2504C3.37755 15.2503 3.05309 15.175 2.75614 15.0301C2.45919 14.8853 2.19716 14.6743 1.98894 14.4125C1.78072 14.1508 1.63149 13.8447 1.55203 13.5163C1.47256 13.188 1.46335 12.8455 1.52792 12.5137L0.0769985 12.2142C-0.0305707 12.767 -0.0162632 13.3374 0.11604 13.8845C0.248342 14.4316 0.496825 14.9416 0.843588 15.3779C1.19035 15.8141 1.62676 16.1657 2.12137 16.4074C2.61598 16.649 3.15647 16.7746 3.70392 16.7753L3.70615 15.2504ZM5.49039 0.00266745C4.63445 0.00207868 3.80475 0.306984 3.14252 0.865486C2.48029 1.42399 2.02646 2.20156 1.85827 3.06587L3.30919 3.36545C3.41014 2.84666 3.68262 2.37995 4.0802 2.04483C4.47778 1.70971 4.97588 1.52689 5.48965 1.52753L5.49039 0.00266745ZM9.55556 25.9273C10.409 25.9278 11.2493 25.7113 12.002 25.2969C12.7547 24.8826 13.3963 24.2832 13.8699 23.5521L12.6384 22.7067C12.3001 23.2287 11.8419 23.6565 11.3045 23.9523C10.7671 24.2481 10.1671 24.4027 9.55778 24.4024L9.55556 25.9273ZM22.3102 1.53572C22.8992 1.53601 23.464 1.77727 23.8804 2.20642C24.2967 2.63558 24.5304 3.21747 24.5301 3.8241L26.0108 3.82482C26.011 3.3242 25.9155 2.82844 25.7297 2.36583C25.5439 1.90323 25.2714 1.48285 24.9279 1.12869C24.5843 0.774534 24.1764 0.493537 23.7274 0.301739C23.2783 0.109942 22.797 0.0111011 22.3109 0.0108642L22.3102 1.53572Z" fill="white"/>
</svg>
