<svg width="39" height="39" viewBox="0 0 39 39" fill="none" xmlns="http://www.w3.org/2000/svg">
<path d="M9.50625 27.7875C10.8875 26.7313 12.4313 25.8984 14.1375 25.2891C15.8438 24.6797 17.6313 24.375 19.5 24.375C21.3687 24.375 23.1562 24.6797 24.8625 25.2891C26.5688 25.8984 28.1125 26.7313 29.4937 27.7875C30.4417 26.6771 31.1797 25.4177 31.7078 24.0094C32.2359 22.601 32.5 21.0979 32.5 19.5C32.5 15.8979 31.2339 12.8307 28.7016 10.2984C26.1693 7.76615 23.1021 6.5 19.5 6.5C15.8979 6.5 12.8307 7.76615 10.2984 10.2984C7.76615 12.8307 6.5 15.8979 6.5 19.5C6.5 21.0979 6.76406 22.601 7.29219 24.0094C7.82031 25.4177 8.55833 26.6771 9.50625 27.7875ZM19.5 21.125C17.9021 21.125 16.5547 20.5766 15.4578 19.4797C14.3609 18.3828 13.8125 17.0354 13.8125 15.4375C13.8125 13.8396 14.3609 12.4922 15.4578 11.3953C16.5547 10.2984 17.9021 9.75 19.5 9.75C21.0979 9.75 22.4453 10.2984 23.5422 11.3953C24.6391 12.4922 25.1875 13.8396 25.1875 15.4375C25.1875 17.0354 24.6391 18.3828 23.5422 19.4797C22.4453 20.5766 21.0979 21.125 19.5 21.125ZM19.5 35.75C17.2521 35.75 15.1396 35.3234 13.1625 34.4703C11.1854 33.6172 9.46562 32.4594 8.00312 30.9969C6.54062 29.5344 5.38281 27.8146 4.52969 25.8375C3.67656 23.8604 3.25 21.7479 3.25 19.5C3.25 17.2521 3.67656 15.1396 4.52969 13.1625C5.38281 11.1854 6.54062 9.46562 8.00312 8.00312C9.46562 6.54062 11.1854 5.38281 13.1625 4.52969C15.1396 3.67656 17.2521 3.25 19.5 3.25C21.7479 3.25 23.8604 3.67656 25.8375 4.52969C27.8146 5.38281 29.5344 6.54062 30.9969 8.00312C32.4594 9.46562 33.6172 11.1854 34.4703 13.1625C35.3234 15.1396 35.75 17.2521 35.75 19.5C35.75 21.7479 35.3234 23.8604 34.4703 25.8375C33.6172 27.8146 32.4594 29.5344 30.9969 30.9969C29.5344 32.4594 27.8146 33.6172 25.8375 34.4703C23.8604 35.3234 21.7479 35.75 19.5 35.75Z" fill="#FEF7FF"/>
</svg>
