<svg width="29" height="29" viewBox="0 0 29 29" fill="none" xmlns="http://www.w3.org/2000/svg">
<g clip-path="url(#clip0_232_984)">
<path d="M27.7918 22.9583C27.7918 23.5993 27.5372 24.214 27.084 24.6672C26.6308 25.1204 26.0161 25.375 25.3752 25.375H3.62516C2.98422 25.375 2.36953 25.1204 1.91632 24.6672C1.46311 24.214 1.2085 23.5993 1.2085 22.9583V9.66667C1.2085 9.02573 1.46311 8.41104 1.91632 7.95783C2.36953 7.50461 2.98422 7.25 3.62516 7.25H8.4585L10.8752 3.625H18.1252L20.5418 7.25H25.3752C26.0161 7.25 26.6308 7.50461 27.084 7.95783C27.5372 8.41104 27.7918 9.02573 27.7918 9.66667V22.9583Z" stroke="#F3F3F3" stroke-width="2.5" stroke-linecap="round" stroke-linejoin="round"/>
<path d="M14.5002 20.5417C17.1695 20.5417 19.3335 18.3777 19.3335 15.7083C19.3335 13.039 17.1695 10.875 14.5002 10.875C11.8308 10.875 9.66683 13.039 9.66683 15.7083C9.66683 18.3777 11.8308 20.5417 14.5002 20.5417Z" stroke="#F3F3F3" stroke-width="2.5" stroke-linecap="round" stroke-linejoin="round"/>
</g>
<defs>
<clipPath id="clip0_232_984">
<rect width="29" height="29" fill="white"/>
</clipPath>
</defs>
</svg>
