<svg width="19" height="18" viewBox="0 0 19 18" fill="none" xmlns="http://www.w3.org/2000/svg">
<path d="M18.3142 16.8199L13.8641 12.4966C15.1564 10.9908 15.8015 9.05892 15.665 7.10285C15.5285 5.14679 14.621 3.31714 13.1314 1.99455C11.6417 0.671953 9.68446 -0.0417581 7.6669 0.00189023C5.64934 0.0455385 3.72678 0.843186 2.29917 2.22889C0.871556 3.6146 0.0488147 5.48168 0.00210317 7.44171C-0.0446084 9.40174 0.688306 11.3038 2.04838 12.7522C3.40844 14.2006 5.29095 15.0839 7.30427 15.2182C9.31758 15.3525 11.3067 14.7276 12.8578 13.4734L17.3079 17.7975C17.374 17.8617 17.4524 17.9126 17.5387 17.9474C17.6251 17.9821 17.7176 18 17.8111 18C17.9045 18 17.997 17.9821 18.0834 17.9474C18.1697 17.9126 18.2481 17.8617 18.3142 17.7975C18.3803 17.7333 18.4327 17.6571 18.4684 17.5733C18.5042 17.4894 18.5226 17.3995 18.5226 17.3087C18.5226 17.2179 18.5042 17.128 18.4684 17.0442C18.4327 16.9603 18.3803 16.8841 18.3142 16.8199ZM1.45427 7.63611C1.45427 6.40629 1.82966 5.20408 2.53295 4.18152C3.23624 3.15896 4.23586 2.36197 5.4054 1.89133C6.57493 1.4207 7.86185 1.29756 9.10342 1.53749C10.345 1.77741 11.4855 2.36963 12.3806 3.23925C13.2757 4.10887 13.8853 5.21683 14.1322 6.42302C14.3792 7.62921 14.2525 8.87947 13.768 10.0157C13.2836 11.1519 12.4632 12.123 11.4107 12.8063C10.3581 13.4895 9.12065 13.8542 7.85475 13.8542C6.15782 13.8524 4.53092 13.1967 3.33101 12.031C2.13109 10.8652 1.45616 9.28469 1.45427 7.63611Z" fill="white"/>
</svg>
