<svg width="10" height="10" viewBox="0 0 10 10" fill="none" xmlns="http://www.w3.org/2000/svg">
<path d="M5.65618 1.79454L7.54097 2.68687M0.571531 9.09812L0.559151 8.96059C0.515373 8.47401 0.493481 8.2307 0.535017 7.99384C0.571873 7.78365 0.645647 7.57771 0.754531 7.38114C0.877221 7.15956 1.05965 6.95475 1.42452 6.54516L6.48663 0.862196C6.8261 0.481125 7.52318 0.371966 8.04369 0.61837C8.56413 0.864784 8.71089 1.37345 8.37148 1.75452L3.21644 7.54174C2.88544 7.91336 2.71993 8.09915 2.51624 8.25817C2.33545 8.39934 2.13267 8.52459 1.91206 8.63135C1.66354 8.75163 1.38524 8.83992 0.828714 9.01649L0.571531 9.09812Z" stroke="#A2A2A2" stroke-linecap="round" stroke-linejoin="round"/>
</svg>
