<svg width="38" height="35" viewBox="0 0 38 35" fill="none" xmlns="http://www.w3.org/2000/svg">
<path d="M28.5 32.0834C27.1806 32.0834 26.059 31.6581 25.1354 30.8074C24.2118 29.9567 23.75 28.9237 23.75 27.7084C23.75 27.5383 23.7632 27.3621 23.7896 27.1798C23.816 26.9975 23.8556 26.8334 23.9083 26.6876L12.7458 20.7084C12.2972 21.073 11.7958 21.3586 11.2417 21.5652C10.6875 21.7718 10.1069 21.8751 9.5 21.8751C8.18056 21.8751 7.05903 21.4497 6.13542 20.599C5.21181 19.7483 4.75 18.7154 4.75 17.5001C4.75 16.2848 5.21181 15.2518 6.13542 14.4011C7.05903 13.5504 8.18056 13.1251 9.5 13.1251C10.1069 13.1251 10.6875 13.2284 11.2417 13.435C11.7958 13.6416 12.2972 13.9272 12.7458 14.2917L23.9083 8.31258C23.8556 8.16675 23.816 8.00269 23.7896 7.82039C23.7632 7.6381 23.75 7.46189 23.75 7.29175C23.75 6.07647 24.2118 5.04348 25.1354 4.19279C26.059 3.3421 27.1806 2.91675 28.5 2.91675C29.8194 2.91675 30.941 3.3421 31.8646 4.19279C32.7882 5.04348 33.25 6.07647 33.25 7.29175C33.25 8.50703 32.7882 9.54001 31.8646 10.3907C30.941 11.2414 29.8194 11.6667 28.5 11.6667C27.8931 11.6667 27.3125 11.5634 26.7583 11.3569C26.2042 11.1503 25.7028 10.8647 25.2542 10.5001L14.0917 16.4792C14.1444 16.6251 14.184 16.7891 14.2104 16.9714C14.2368 17.1537 14.25 17.3299 14.25 17.5001C14.25 17.6702 14.2368 17.8464 14.2104 18.0287C14.184 18.211 14.1444 18.3751 14.0917 18.5209L25.2542 24.5001C25.7028 24.1355 26.2042 23.8499 26.7583 23.6433C27.3125 23.4367 27.8931 23.3334 28.5 23.3334C29.8194 23.3334 30.941 23.7588 31.8646 24.6095C32.7882 25.4601 33.25 26.4931 33.25 27.7084C33.25 28.9237 32.7882 29.9567 31.8646 30.8074C30.941 31.6581 29.8194 32.0834 28.5 32.0834ZM28.5 8.75008C28.9486 8.75008 29.3247 8.61032 29.6281 8.33081C29.9316 8.0513 30.0833 7.70494 30.0833 7.29175C30.0833 6.87855 29.9316 6.5322 29.6281 6.25269C29.3247 5.97317 28.9486 5.83341 28.5 5.83341C28.0514 5.83341 27.6753 5.97317 27.3719 6.25269C27.0684 6.5322 26.9167 6.87855 26.9167 7.29175C26.9167 7.70494 27.0684 8.0513 27.3719 8.33081C27.6753 8.61032 28.0514 8.75008 28.5 8.75008ZM9.5 18.9584C9.94861 18.9584 10.3247 18.8187 10.6281 18.5391C10.9316 18.2596 11.0833 17.9133 11.0833 17.5001C11.0833 17.0869 10.9316 16.7405 10.6281 16.461C10.3247 16.1815 9.94861 16.0417 9.5 16.0417C9.05139 16.0417 8.67535 16.1815 8.37188 16.461C8.0684 16.7405 7.91667 17.0869 7.91667 17.5001C7.91667 17.9133 8.0684 18.2596 8.37188 18.5391C8.67535 18.8187 9.05139 18.9584 9.5 18.9584ZM28.5 29.1667C28.9486 29.1667 29.3247 29.027 29.6281 28.7475C29.9316 28.468 30.0833 28.1216 30.0833 27.7084C30.0833 27.2952 29.9316 26.9489 29.6281 26.6694C29.3247 26.3898 28.9486 26.2501 28.5 26.2501C28.0514 26.2501 27.6753 26.3898 27.3719 26.6694C27.0684 26.9489 26.9167 27.2952 26.9167 27.7084C26.9167 28.1216 27.0684 28.468 27.3719 28.7475C27.6753 29.027 28.0514 29.1667 28.5 29.1667Z" fill="#FEF7FF"/>
</svg>
